<svg height="480pt" viewBox="0 -16 480.00001 480" width="480pt" xmlns="http://www.w3.org/2000/svg"><path d="m472 144h-224v-8h-16v8h-64v-32h8v-16h-16c-4.417969 0-8 3.582031-8 8v48c.007812 2.15625-.878906 4.21875-2.449219 5.695312-1.457031 1.492188-3.464843 2.324219-5.550781 2.304688-4.417969 0-8-3.582031-8-8v-32c-.066406-13.226562-10.773438-23.933594-24-24-13.253906 0-24 10.746094-24 24v16c.007812 2.15625-.878906 4.21875-2.449219 5.695312-1.457031 1.492188-3.464843 2.324219-5.550781 2.304688-4.417969 0-8-3.582031-8-8v-32c0-4.417969-3.582031-8-8-8h-40c-4.417969 0-8-3.582031-8-8s3.582031-8 8-8h136v-16h-136c-13.253906 0-24 10.746094-24 24 .015625 3.570312.835938 7.089844 2.398438 10.296875-1.535157 1.496094-2.40234425 3.554687-2.398438 5.703125v336c0 4.417969 3.582031 8 8 8h464c4.417969 0 8-3.582031 8-8v-288c0-4.417969-3.582031-8-8-8zm-8 48h-48v-32h48zm-400-32v32h-48v-32zm168 48v32h-96v-32zm72-16v-32h96v32zm40 16v32h-96v-32zm-40 80v-32h96v32zm-56 48v-32h96v32zm-56 48v-32h96v32zm-176-48v-32h104v32zm0-80h48v32h-48zm160 0v32h-96v-32zm112 0v32h-96v-32zm-152 48h96v32h-96zm-16-64h-104v-32h104zm-104 112h48v32h-48zm64 0h96v32h-96zm152 48v32h-96v-32zm16 0h96v32h-96zm56-16v-32h96v32zm112-32h48v32h-48zm-56-16v-32h104v32zm56-48v-32h48v32zm-56-48v-32h104v32zm-120-80h48v32h-96v-32zm-96 16c10.144531-.019531 19.175781-6.429688 22.542969-16h9.457031v32h-96v-32h41.472656c3.378906 9.554688 12.394532 15.957031 22.527344 16zm-40-40v-16c0-4.417969 3.582031-8 8-8 2.15625-.007812 4.21875.878906 5.695312 2.449219 1.492188 1.457031 2.324219 3.464843 2.304688 5.550781v24h-17.457031c.9375-2.5625 1.429687-5.269531 1.457031-8zm-48-24v24c.027344 2.730469.523438 5.4375 1.472656 8h-41.472656v-32zm-40 288h104v32h-104zm344 32v-32h104v32zm0 0"/><path d="m456 0h-64c-4.417969 0-8 3.582031-8 8v8h-24c-4.417969 0-8 3.582031-8 8v40h-16v-40c0-4.417969-3.582031-8-8-8h-54.3125c-38.726562-.042969-74.898438 19.316406-96.34375 51.558594-1.792969 2.691406-1.792969 6.191406 0 8.882812 21.445312 32.242188 57.617188 51.601563 96.34375 51.558594h54.3125c4.417969 0 8-3.582031 8-8v-40h24c4.417969 0 8-3.582031 8-8v-40h16v8c0 4.417969 3.582031 8 8 8h64c13.253906 0 24-10.746094 24-24s-10.746094-24-24-24zm-136 112h-46.3125c-31.453125.035156-61.074219-14.796875-79.894531-40 18.820312-25.203125 48.441406-40.035156 79.894531-40h46.3125v32h-24v16h24zm136-80h-56v-16h56c4.417969 0 8 3.582031 8 8s-3.582031 8-8 8zm0 0"/></svg>