<?xml version="1.0" encoding="iso-8859-1"?>
<!-- Generator: Adobe Illustrator 19.0.0, SVG Export Plug-In . SVG Version: 6.00 Build 0)  -->
<svg version="1.1" id="Capa_1" xmlns="http://www.w3.org/2000/svg" xmlns:xlink="http://www.w3.org/1999/xlink" x="0px" y="0px"
	 viewBox="0 0 512 512" style="enable-background:new 0 0 512 512;" xml:space="preserve">
<g>
	<g>
		<path d="M256,332c-5.52,0-10,4.48-10,10c0,5.52,4.48,10,10,10s10-4.48,10-10C266,336.48,261.52,332,256,332z"/>
	</g>
</g>
<g>
	<g>
		<path d="M266,172.299V140h30c71.683,0,130-58.318,130-130c0-5.523-4.478-10-10-10h-40c-53.942,0-100.31,33.026-119.96,79.917
			c-6.448-15.453-15.92-29.645-28.117-41.836C203.377,13.524,170.732,0,136,0H96c-5.523,0-10,4.477-10,10
			c0,34.732,13.524,67.377,38.077,91.919C148.623,126.476,181.268,140,216,140h30v32.299C158.274,177.355,86,249.962,86,342
			c0,93.738,76.262,170,170,170s170-76.262,170-170C426,251.236,355.098,177.434,266,172.299z M376,19.9h29.55
			C400.483,75.888,353.285,120,296,120h-10l56-42c4.418-3.314,5.313-9.582,2-14c-3.314-4.418-9.581-5.314-14-2l-61.863,46.397
			C278.202,58.051,322.737,19.9,376,19.9z M170,78l56,42h-10c-29.388,0-57.01-11.442-77.781-32.223
			C119.817,69.384,108.738,45.612,106.445,20H136c29.388,0,57.01,11.442,77.781,32.223c15.588,15.581,25.897,35.028,30.086,56.178
			L182,62c-4.418-3.313-10.687-2.418-14,2C164.686,68.418,165.582,74.686,170,78z M266,193.655
			c18.739,6.205,36.112,29.49,47.312,63.454c-15.187-2.817-31.015-4.48-47.312-4.96V193.655z M246,193.655v58.494
			c-16.296,0.48-32.123,2.143-47.311,4.96C209.889,223.144,227.261,199.86,246,193.655z M205.202,200.932
			c-12.024,15.299-22.023,36.145-28.956,61.315c-25.17,6.933-46.015,16.932-61.314,28.956
			C130.11,249.42,163.421,216.11,205.202,200.932z M171.109,284.689c-2.817,15.187-4.48,31.015-4.96,47.311h-58.494
			C113.861,313.261,137.145,295.889,171.109,284.689z M166.149,352c0.48,16.297,2.143,32.124,4.961,47.313
			c-34.05-11.215-57.26-28.561-63.444-47.313H166.149z M114.864,392.804c15.284,12.013,36.144,22.001,61.382,28.95
			c6.949,25.238,16.937,46.098,28.95,61.382C163.288,468.005,129.995,434.712,114.864,392.804z M246,490.335
			c-18.752-6.184-36.099-29.395-47.313-63.444c15.188,2.817,31.016,4.48,47.313,4.961V490.335z M256,372c-5.522,0-10,4.477-10,10
			v29.839c-18.541-0.581-36.391-2.788-53.258-6.581c-3.793-16.867-6-34.717-6.581-53.258H216c5.523,0,10-4.477,10-10
			s-4.477-10-10-10h-29.839c0.581-18.541,2.788-36.391,6.581-53.258c16.867-3.793,34.717-6,53.258-6.581V302c0,5.523,4.478,10,10,10
			c5.522,0,10-4.477,10-10v-29.839c18.541,0.581,36.391,2.788,53.259,6.581c3.792,16.868,5.999,34.717,6.58,53.258H296
			c-5.522,0-10,4.477-10,10s4.478,9.9,10,9.9h29.839c-0.581,18.541-2.788,36.491-6.581,53.358c-16.868,3.793-34.718,6-53.258,6.581
			V382C266,376.477,261.522,372,256,372z M266,490.335v-58.483c16.297-0.48,32.125-2.143,47.313-4.961
			C302.098,460.94,284.751,484.151,266,490.335z M306.804,483.136c12.013-15.284,22.001-36.144,28.951-61.382
			c25.237-6.949,46.097-16.937,61.381-28.95C382.005,434.712,348.712,468.005,306.804,483.136z M340.891,399.313
			c2.817-15.188,4.48-31.116,4.96-47.413h58.483C398.151,370.652,374.94,388.098,340.891,399.313z M345.851,332
			c-0.48-16.296-2.143-32.123-4.96-47.311c33.964,11.2,57.248,28.572,63.454,47.311H345.851z M335.754,262.246
			c-6.933-25.17-16.932-46.015-28.956-61.314c41.782,15.178,75.092,48.489,90.27,90.27
			C381.769,279.178,360.923,269.179,335.754,262.246z"/>
	</g>
</g>
<g>
</g>
<g>
</g>
<g>
</g>
<g>
</g>
<g>
</g>
<g>
</g>
<g>
</g>
<g>
</g>
<g>
</g>
<g>
</g>
<g>
</g>
<g>
</g>
<g>
</g>
<g>
</g>
<g>
</g>
</svg>
