<svg xmlns="http://www.w3.org/2000/svg" height="639pt" version="1.1" viewBox="-64 0 639 639.99863" width="639pt">
<g id="surface1">
<path d="M 255.960938 117.328125 C 232.398438 117.328125 213.296875 136.433594 213.296875 159.996094 C 213.296875 183.558594 232.398438 202.660156 255.960938 202.660156 C 279.527344 202.660156 298.628906 183.558594 298.628906 159.996094 C 298.628906 136.433594 279.527344 117.328125 255.960938 117.328125 Z M 255.960938 181.328125 C 244.179688 181.328125 234.628906 171.777344 234.628906 159.996094 C 234.628906 148.210938 244.179688 138.660156 255.960938 138.660156 C 267.746094 138.660156 277.296875 148.210938 277.296875 159.996094 C 277.296875 171.777344 267.746094 181.328125 255.960938 181.328125 Z M 255.960938 181.328125 " style=" stroke:none;fill-rule:nonzero;fill:rgb(0%,0%,0%);fill-opacity:1;" />
<path d="M 508.519531 578.867188 C 508.429688 577.222656 507.949219 575.621094 507.125 574.1875 L 360.707031 319.996094 L 383.960938 319.996094 C 389.847656 319.996094 394.628906 315.21875 394.628906 309.324219 L 394.628906 245.328125 C 394.628906 239.4375 389.847656 234.664062 383.960938 234.664062 L 330.625 234.664062 L 330.625 74.664062 C 330.625 68.773438 325.851562 64 319.960938 64 L 298.628906 64 L 298.628906 10.667969 C 298.628906 4.773438 293.851562 0 287.960938 0 L 223.960938 0 C 218.070312 0 213.296875 4.773438 213.296875 10.667969 L 213.296875 64 L 191.964844 64 C 186.070312 64 181.292969 68.773438 181.292969 74.667969 L 181.292969 234.664062 L 127.964844 234.664062 C 122.074219 234.664062 117.300781 239.4375 117.300781 245.328125 L 117.300781 309.324219 C 117.300781 315.21875 122.074219 319.996094 127.964844 319.996094 L 151.214844 319.996094 L 4.800781 574.183594 C 3.976562 575.621094 3.496094 577.222656 3.402344 578.867188 L 0.523438 626.539062 C 0.132812 632.410156 4.582031 637.496094 10.460938 637.886719 C 12.789062 638.042969 15.109375 637.425781 17.054688 636.136719 L 56.851562 609.789062 C 58.226562 608.871094 59.375 607.652344 60.199219 606.214844 L 223.960938 321.816406 L 223.960938 586.65625 C 223.960938 588.308594 224.347656 589.941406 225.082031 591.425781 L 246.417969 634.089844 C 249.042969 639.359375 255.449219 641.503906 260.71875 638.875 C 262.792969 637.839844 264.472656 636.160156 265.507812 634.089844 L 286.839844 591.425781 C 287.578125 589.941406 287.964844 588.308594 287.960938 586.65625 L 287.960938 321.816406 L 451.722656 606.160156 C 452.550781 607.597656 453.695312 608.816406 455.074219 609.734375 L 494.867188 636.082031 C 496.617188 637.234375 498.664062 637.855469 500.757812 637.851562 C 506.644531 637.867188 511.429688 633.101562 511.441406 627.207031 C 511.441406 626.980469 511.4375 626.761719 511.421875 626.539062 Z M 234.628906 21.332031 L 277.296875 21.332031 L 277.296875 64 L 234.628906 64 Z M 202.628906 85.332031 L 309.292969 85.332031 L 309.292969 234.664062 L 202.628906 234.664062 Z M 138.632812 255.996094 L 373.292969 255.996094 L 373.292969 298.660156 L 138.632812 298.660156 Z M 42.964844 593.34375 L 23.101562 606.484375 L 24.542969 582.65625 L 175.835938 319.996094 L 200.367188 319.996094 Z M 266.632812 584.140625 L 255.960938 605.46875 L 245.292969 584.140625 L 245.292969 319.996094 L 266.625 319.996094 L 266.625 584.140625 Z M 468.960938 593.34375 L 311.535156 319.996094 L 336.066406 319.996094 L 487.421875 582.65625 L 488.863281 606.484375 Z M 468.960938 593.34375 " style=" stroke:none;fill-rule:nonzero;fill:rgb(0%,0%,0%);fill-opacity:1;" />
</g>
</svg>