<svg height="480pt" viewBox="0 0 480 480" width="480pt" xmlns="http://www.w3.org/2000/svg"><path d="m464 424v-224h-16v24h-16v-24h-16v24h-32v-24h-16v24h-16v-24h-16v24h-32v-24h-16v24h-16v-24h-16v24h-32v-24h-16v24h-16v-24h-16v264h-32v-376h224v10.585938l-74.96875 29.980468c-3.039062 1.214844-5.03125 4.160156-5.03125 7.433594v32c0 4.417969 3.582031 8 8 8h160c4.417969 0 8-3.582031 8-8v-32c-.011719-3.265625-2.007812-6.191406-5.039062-7.398438l-74.960938-30.015624v-10.585938h88c3.234375 0 6.152344-1.949219 7.390625-4.9375s.550781-6.429688-1.734375-8.71875l-48-48c-1.5-1.5-3.535156-2.34375-5.65625-2.34375h-304v-24h-16v24h-56c-2.375 0-4.632812 1.054688-6.152344 2.878906l-40 48c-.496094.597656-.898437 1.261719-1.199218 1.976563 0 .054687 0 .121093-.046876.183593-.324218.828126-.5039058 1.707032-.5312495 2.59375 0 .128907-.0703125.238282-.0703125.367188v32c0 4.417969 3.582031 8 8 8h48c4.417969 0 8-3.582031 8-8v-24h16v376h-80v16h480v-16h-16zm-48-8h-32v-16h32zm0-32h-32v-32h32zm0-48h-32v-16h32zm0-32h-32v-32h32zm-32 128h32v32h-32zm32-176h-32v-16h32zm-80 160h-32v-16h32zm0-32h-32v-32h32zm0-48h-32v-16h32zm0-32h-32v-32h32zm-32 128h32v32h-32zm32-176h-32v-16h32zm-80 160h-32v-16h32zm0-32h-32v-32h32zm0-48h-32v-16h32zm0-32h-32v-32h32zm-32 128h32v32h-32zm32-176h-32v-16h32zm-128 136h-24l24-32zm0-80-24-32h24zm-32-16 24 32h-24zm32-32h-24l24-32zm-32-96 24 32h-24zm8-16h24v32zm24-16h-24l24-32zm-32 80h24l-24 32zm0 128h24l-24 32zm32 64v32l-24-32zm219.3125-368h57.375l-28.6875 28.6875zm9.375 32h-57.375l28.6875-28.6875zm-76.6875-3.3125-28.6875-28.6875h57.375zm-19.3125 3.3125h-57.375l28.6875-28.6875zm-76.6875-3.3125-28.6875-28.6875h57.375zm-19.3125 3.3125h-20.6875v-20.6875zm211.3125 40.617188 38.457031 15.382812h-76.914062zm72 47.382812h-144v-16h144zm4.6875-88h-57.375l28.6875-28.6875zm-324.6875-32v32h-32v-32zm-48 17.902344-14.921875-17.902344h14.921875zm-32-13.40625 22.921875 27.503906h-45.84375zm0 59.503906h-32v-16h32zm72-16-24 32v-32zm-24 336 30 40h-30zm96 40v-224h16v224zm80 0v-224h16v224zm80 0v-224h16v224zm80 0v-224h16v224zm0 0"/></svg>