<?xml version="1.0" ?><!DOCTYPE svg  PUBLIC '-//W3C//DTD SVG 1.1//EN'  'http://www.w3.org/Graphics/SVG/1.1/DTD/svg11.dtd'><svg height="512px" style="enable-background:new 0 0 512 512;" version="1.1" viewBox="0 0 512 512" width="512px" xml:space="preserve" xmlns="http://www.w3.org/2000/svg" xmlns:xlink="http://www.w3.org/1999/xlink"><g id="_x32_60_x2C___Finance_x2C__investment_x2C__management_x2C__solution"><g><path d="M151.949,198.685c18.206,0.389,32.745-4.773,43.169-15.363c23.986-24.369,22.182-72.413,21.314-95.502    c-0.049-1.301-0.094-2.526-0.134-3.688h18.096c2.209,0,4-1.791,4-4v-39.57c0-2.209-1.791-4-4-4s-4,1.791-4,4v35.57H88.748V41.046    c0-2.209-1.791-4-4-4s-4,1.791-4,4v39.085c0,2.209,1.791,4,4,4h22.26v16.816c0,1.061-0.421,2.078-1.171,2.829    c-88.544,88.546-88.14,97.037-84.273,178.261c0.998,20.955,2.238,47.02,2.247,80.34c3.632,21.036,9.448,26.185,12.031,25.944    c6.031-0.54,16.611-20.738,16.226-59.061c0-20.144,1.452-41.997,12.1-52.067c-1.004,0.087-2.002,0.141-2.986,0.141    c-7.691,0-14.69-2.646-19.49-7.9c-8.83-9.668-7.194-24.269,4.377-39.057c0.138-0.176,0.291-0.341,0.456-0.492l62.911-57.327    c1.633-1.487,4.163-1.371,5.651,0.262c1.488,1.633,1.371,4.163-0.262,5.651l-62.658,57.097    c-8.783,11.353-10.495,21.981-4.567,28.471c5.535,6.06,18.374,8.01,31.264-0.315c0.051-0.032,0.106-0.051,0.158-0.081    l70.15-63.916C149.927,199.036,150.899,198.659,151.949,198.685z"/><path d="M406.177,103.776c-0.75-0.75-1.171-1.768-1.171-2.828V84.131h22.263c2.209,0,4-1.791,4-4V41.046c0-2.209-1.791-4-4-4    s-4,1.791-4,4v35.085H281.621v-35.57c0-2.209-1.791-4-4-4s-4,1.791-4,4v39.57c0,2.209,1.791,4,4,4h18.082    c-0.04,1.16-0.085,2.384-0.134,3.683c-0.866,23.091-2.669,71.139,21.319,95.509c10.423,10.588,24.94,15.759,43.163,15.361    c1.024-0.027,2.022,0.351,2.78,1.042l70.158,63.914c0.053,0.031,0.109,0.049,0.161,0.082c12.887,8.322,25.723,6.377,31.257,0.318    c5.927-6.488,4.213-17.118-4.572-28.473l-62.662-57.097c-1.633-1.488-1.75-4.018-0.262-5.65c1.487-1.634,4.019-1.75,5.65-0.263    l62.915,57.327c0.165,0.151,0.318,0.315,0.456,0.492c11.573,14.79,13.211,29.392,4.381,39.06    c-4.796,5.251-11.795,7.896-19.482,7.896c-0.984,0-1.981-0.054-2.985-0.14c10.635,10.066,12.085,31.922,12.085,52.027    c-0.373,38.364,10.207,58.562,16.234,59.101c2.557,0.23,8.395-4.91,12.025-25.944c0.009-33.318,1.249-59.383,2.246-80.339    C494.304,200.813,494.708,192.322,406.177,103.776z"/><path d="M112.047,67.118c7.056,0,12.797-5.741,12.797-12.797c0-7.056-5.741-12.797-12.797-12.797    c-7.047,0-12.78,5.741-12.78,12.797C99.267,61.377,105,67.118,112.047,67.118z"/><path d="M402.727,67.118c7.046,0,12.778-5.741,12.778-12.797c0-7.056-5.732-12.797-12.778-12.797    c-7.057,0-12.798,5.741-12.798,12.797C389.929,61.377,395.67,67.118,402.727,67.118z"/><path d="M331.7,438.082c-3.916-7.926-9.251-15.039-15.699-21.006c-0.173-0.16-0.35-0.318-0.524-0.477    c-0.362-0.328-0.729-0.654-1.099-0.977c-0.265-0.23-0.533-0.459-0.802-0.686c-0.286-0.242-0.574-0.482-0.864-0.719    c-0.32-0.264-0.642-0.523-0.967-0.779c-0.25-0.199-0.503-0.395-0.757-0.588c-0.351-0.271-0.703-0.541-1.061-0.805    c-0.056-0.043-0.112-0.082-0.169-0.123c-5.284,6.904-11.756,12.635-19.007,17.035c-0.011,0.006-0.021,0.014-0.032,0.02    c-0.922,0.559-1.854,1.098-2.802,1.613c-0.079,0.043-0.16,0.084-0.239,0.127c-0.922,0.496-1.85,0.979-2.792,1.434    c-0.026,0.012-0.054,0.023-0.08,0.035c-1.868,0.896-3.777,1.709-5.723,2.434c-0.138,0.053-0.271,0.111-0.409,0.162    c-0.561,0.205-1.131,0.385-1.697,0.574c-0.62,0.209-1.238,0.422-1.865,0.611c-0.506,0.154-1.017,0.293-1.526,0.436    c-0.702,0.197-1.406,0.389-2.118,0.563c-0.482,0.119-0.966,0.229-1.452,0.338c-0.752,0.166-1.508,0.322-2.27,0.465    c-0.465,0.086-0.931,0.172-1.398,0.25c-0.797,0.133-1.601,0.246-2.406,0.352c-0.444,0.057-0.887,0.119-1.333,0.168    c-0.874,0.098-1.754,0.168-2.638,0.23c-0.382,0.027-0.764,0.066-1.147,0.088c-1.263,0.07-2.534,0.111-3.814,0.111    c-1.279,0-2.549-0.041-3.812-0.111c-0.393-0.021-0.781-0.061-1.173-0.09c-0.871-0.063-1.74-0.133-2.603-0.227    c-0.463-0.051-0.922-0.115-1.384-0.176c-0.782-0.104-1.563-0.213-2.337-0.34c-0.495-0.082-0.987-0.174-1.48-0.266    c-0.722-0.137-1.439-0.283-2.153-0.441c-0.527-0.119-1.054-0.236-1.577-0.367c-0.646-0.158-1.287-0.332-1.927-0.512    c-0.576-0.158-1.152-0.316-1.724-0.49c-0.503-0.154-0.998-0.324-1.496-0.49c-13.01-4.303-24.569-12.414-33.071-23.533    c-0.076,0.055-0.153,0.109-0.229,0.166c-0.271,0.203-0.539,0.408-0.809,0.613c-0.361,0.277-0.721,0.555-1.077,0.838    c-0.212,0.168-0.422,0.338-0.632,0.508c-0.441,0.359-0.881,0.725-1.313,1.094c-0.116,0.1-0.231,0.197-0.347,0.297    c-7.257,6.275-13.241,13.973-17.557,22.65c-0.021,0.043-0.048,0.08-0.069,0.121c-4.752,9.666-7.325,20.408-7.325,31.531v5.695    h168.209v-5.695c0-11.037-2.537-21.701-7.223-31.314C331.83,438.316,331.76,438.203,331.7,438.082z"/><path d="M255.009,269.688c-55.154,0-100.026,44.886-100.026,100.056c0,20.932,6.615,41.395,18.744,58.316    c4.758-7.84,10.874-14.893,18.164-20.822c0.144-0.117,0.285-0.234,0.431-0.352c0.901-0.723,1.821-1.43,2.758-2.117    c0.09-0.068,0.175-0.139,0.265-0.205c-4.306-7.4-7.155-15.516-8.455-23.979c-0.013-0.084-0.024-0.168-0.037-0.252    c-0.162-1.086-0.306-2.176-0.417-3.271c-0.001-0.012-0.002-0.023-0.003-0.034c-0.107-1.054-0.185-2.112-0.243-3.175    c-0.012-0.227-0.022-0.453-0.033-0.68c-0.048-1.057-0.08-2.116-0.08-3.18c0-38.006,30.924-68.927,68.934-68.927    c38.021,0,68.954,30.921,68.954,68.927c0,1.059-0.032,2.113-0.08,3.165c-0.012,0.236-0.022,0.474-0.035,0.71    c-0.058,1.043-0.134,2.083-0.238,3.118c-0.006,0.067-0.016,0.135-0.022,0.203c-0.105,1.01-0.236,2.015-0.385,3.017    c-0.023,0.155-0.045,0.313-0.069,0.467c-1.309,8.418-4.154,16.5-8.445,23.889c0.102,0.074,0.197,0.156,0.299,0.23    c0.9,0.662,1.784,1.34,2.651,2.035c0.221,0.176,0.438,0.357,0.655,0.535c0.829,0.678,1.644,1.369,2.442,2.074    c0.094,0.084,0.189,0.164,0.282,0.246c0.948,0.848,1.87,1.719,2.773,2.604c0.056,0.055,0.11,0.109,0.165,0.162    c4.774,4.711,8.911,9.951,12.343,15.602c12.137-16.914,18.756-37.373,18.756-58.307    C355.055,314.574,310.174,269.688,255.009,269.688z"/><path d="M228.744,424.066c0.109,0.053,0.215,0.109,0.323,0.16c0.688,0.33,1.387,0.641,2.089,0.947    c0.338,0.146,0.676,0.289,1.017,0.43c0.608,0.252,1.22,0.496,1.839,0.727c0.497,0.186,1,0.357,1.502,0.529    c0.51,0.176,1.017,0.357,1.532,0.52c1.012,0.316,2.031,0.611,3.063,0.873c0.307,0.078,0.62,0.141,0.93,0.217    c0.802,0.189,1.607,0.373,2.418,0.529c0.384,0.076,0.771,0.141,1.158,0.209c0.756,0.133,1.515,0.252,2.277,0.355    c0.395,0.053,0.789,0.105,1.187,0.15c0.8,0.092,1.604,0.164,2.409,0.225c0.351,0.027,0.698,0.061,1.051,0.08    c1.152,0.066,2.309,0.107,3.471,0.107c1.164,0,2.321-0.041,3.475-0.107c0.345-0.02,0.688-0.053,1.031-0.078    c0.817-0.061,1.631-0.135,2.441-0.229c0.383-0.043,0.764-0.094,1.145-0.145c0.787-0.107,1.57-0.23,2.351-0.367    c0.359-0.063,0.72-0.123,1.077-0.193c0.877-0.172,1.746-0.365,2.611-0.574c0.242-0.059,0.488-0.107,0.729-0.168    c1.064-0.271,2.117-0.574,3.162-0.902c0.408-0.129,0.808-0.273,1.212-0.41c0.623-0.211,1.244-0.426,1.858-0.656    c0.532-0.201,1.061-0.41,1.585-0.625c0.449-0.184,0.896-0.373,1.34-0.568c0.605-0.264,1.209-0.533,1.805-0.816    c0.268-0.127,0.53-0.264,0.797-0.396c7.627-3.785,14.347-9.133,19.722-15.635c0.027-0.033,0.054-0.068,0.082-0.102    c6.061-7.365,10.405-16.193,12.422-25.866c0.026-0.128,0.053-0.257,0.079-0.386c0.175-0.869,0.332-1.744,0.47-2.625    c0.009-0.061,0.021-0.119,0.029-0.18c0.141-0.922,0.258-1.852,0.355-2.787c0.021-0.191,0.035-0.385,0.054-0.577    c0.069-0.732,0.125-1.47,0.168-2.209c0.015-0.251,0.029-0.503,0.042-0.755c0.041-0.92,0.069-1.844,0.069-2.773    c0-33.131-26.965-60.084-60.111-60.084c-33.135,0-60.092,26.953-60.092,60.084c0,0.934,0.028,1.86,0.071,2.783    c0.011,0.242,0.025,0.484,0.039,0.727c0.045,0.773,0.103,1.543,0.176,2.308c0.016,0.153,0.026,0.307,0.042,0.46    c0.205,1.963,0.501,3.898,0.891,5.801c0.003,0.017,0.007,0.033,0.01,0.049C199.941,400.598,212.237,416.006,228.744,424.066z"/><path d="M408.69,336.269h-30.354c-1.161-6.079-2.768-12.069-4.79-17.854l26.286-15.179c1.795-1.036,2.409-3.329,1.374-5.124    l-19.711-34.163c-0.497-0.862-1.317-1.491-2.278-1.749c-0.962-0.258-1.986-0.123-2.848,0.375l-26.301,15.186    c-4.032-4.659-8.417-9.044-13.076-13.078l15.179-26.307c0.497-0.862,0.633-1.886,0.374-2.847c-0.258-0.961-0.887-1.78-1.748-2.277    l-34.145-19.698c-1.795-1.035-4.088-0.42-5.123,1.373l-15.186,26.285c-5.739-2.01-11.735-3.62-17.872-4.799v-30.356    c0-2.072-1.68-3.752-3.752-3.752h-39.429c-2.072,0-3.752,1.68-3.752,3.752v30.357c-6.111,1.174-12.104,2.783-17.864,4.797    l-15.186-26.284c-1.035-1.793-3.328-2.409-5.124-1.373l-34.131,19.698c-1.794,1.035-2.41,3.329-1.376,5.123l15.169,26.312    c-4.665,4.023-9.052,8.406-13.082,13.072l-26.297-15.184c-0.861-0.498-1.886-0.633-2.847-0.375    c-0.962,0.258-1.781,0.887-2.278,1.748l-19.715,34.164c-1.036,1.794-0.421,4.088,1.373,5.124l26.286,15.177    c-2.015,5.746-3.62,11.737-4.786,17.856h-30.356c-2.071,0-3.752,1.681-3.752,3.752v39.432c0,2.071,1.681,3.751,3.752,3.751h30.354    c1.264,6.654,3.058,13.203,5.354,19.49c0.555,1.521,1.993,2.467,3.524,2.467c0.428,0,0.861-0.074,1.286-0.23    c1.946-0.711,2.948-2.863,2.237-4.811c-2.337-6.4-4.129-13.09-5.324-19.884c-0.045-0.257-0.115-0.501-0.208-0.734    c0.001-0.017,0.005-0.032,0.005-0.049c0-2.071-1.68-3.752-3.751-3.752h-29.727v-31.928h29.742c2.072,0,3.752-1.681,3.752-3.752    c0-0.029-0.008-0.056-0.009-0.085c0.085-0.221,0.152-0.449,0.194-0.69c1.209-6.837,2.999-13.517,5.323-19.853    c0.087-0.236,0.147-0.478,0.185-0.719c0.014-0.023,0.031-0.043,0.045-0.066c1.036-1.795,0.421-4.089-1.373-5.125l-25.754-14.869    l15.964-27.664l25.751,14.868c1.794,1.036,4.089,0.421,5.125-1.373c0.021-0.036,0.031-0.075,0.051-0.112    c0.176-0.145,0.349-0.295,0.501-0.477c4.412-5.25,9.313-10.146,14.563-14.549c0.177-0.148,0.329-0.313,0.472-0.484    c0.034-0.019,0.07-0.031,0.104-0.051c1.795-1.035,2.411-3.329,1.377-5.124l-14.857-25.772l27.636-15.949l14.87,25.739    c1.036,1.793,3.332,2.41,5.125,1.372c0.016-0.009,0.027-0.022,0.043-0.031c0.248-0.037,0.495-0.092,0.739-0.181    c6.356-2.324,13.043-4.121,19.875-5.341c0.238-0.042,0.464-0.111,0.683-0.194c0.029,0,0.058,0.009,0.088,0.009    c2.072,0,3.752-1.68,3.752-3.751v-29.74h31.926v29.74c0,2.072,1.679,3.751,3.751,3.751c0.031,0,0.06-0.008,0.091-0.009    c0.218,0.083,0.445,0.152,0.684,0.194c6.86,1.226,13.547,3.022,19.871,5.34c0.247,0.09,0.497,0.146,0.747,0.183    c0.016,0.009,0.027,0.021,0.042,0.03c1.795,1.037,4.09,0.421,5.126-1.372l14.87-25.739l27.646,15.949l-14.87,25.771    c-1.035,1.795-0.42,4.088,1.375,5.124c0.043,0.025,0.089,0.042,0.134,0.065c0.137,0.164,0.281,0.322,0.449,0.465    c5.244,4.42,10.143,9.317,14.56,14.559c0.151,0.18,0.323,0.328,0.498,0.473c0.02,0.037,0.029,0.076,0.051,0.112    c1.035,1.794,3.329,2.41,5.125,1.373l25.753-14.868l15.961,27.664l-25.751,14.869c-1.794,1.036-2.409,3.33-1.373,5.125    c0.013,0.021,0.029,0.041,0.042,0.063c0.037,0.24,0.097,0.48,0.184,0.719c2.335,6.393,4.127,13.073,5.328,19.857    c0.042,0.24,0.109,0.471,0.193,0.689c0,0.029-0.008,0.057-0.008,0.085c0,2.071,1.68,3.752,3.752,3.752h29.739V375.7h-29.739    c-2.072,0-3.752,1.681-3.752,3.752c0,0.03,0.008,0.059,0.009,0.089c-0.085,0.221-0.153,0.451-0.195,0.693    c-1.2,6.809-2.992,13.498-5.327,19.885c-0.711,1.945,0.29,4.1,2.236,4.811c0.425,0.156,0.859,0.23,1.287,0.23    c1.53,0,2.969-0.945,3.524-2.465c2.294-6.275,4.089-12.826,5.356-19.492h30.353c2.071,0,3.752-1.68,3.752-3.751v-39.432    C412.442,337.949,410.762,336.269,408.69,336.269z"/></g></g><g id="Layer_1"/></svg>