<svg height="496pt" viewBox="0 0 496 496" width="496pt" xmlns="http://www.w3.org/2000/svg"><path d="m496 213.910156v-26.167968c0-19.773438-14.769531-36.796876-34.335938-39.589844l-21.664062-3.089844v-11.175781c14.488281-10.132813 24-26.910157 24-45.886719v-8h16v-16h-16v-8c0-22.054688-17.945312-40-40-40h-32c-22.054688 0-40 17.945312-40 40v8h-16v16h16v8c0 15.664062 6.480469 29.824219 16.886719 40h-48.886719v-104c0-13.230469-10.769531-24-24-24h-160c-13.230469 0-24 10.769531-24 24v152h-112v48h16v211.054688l-9.886719 4.945312 80 40h273.144531l1.429688 16h94.609375l16.703125-184v-.097656c13.3125-.519532 24-11.4375 24-24.871094 0-6.574219-2.664062-13.007812-7.3125-17.65625l-13.34375-13.34375 13.425781-19.175781c4.734375-6.757813 7.230469-14.695313 7.230469-22.945313zm-61.175781-53.421875 3.273437.464844-9.226562 24.597656-9.558594-9.550781zm-10.824219-11.800781-16 16-16-16v-7.046875c5.070312 1.519531 10.441406 2.359375 16 2.359375s10.929688-.839844 16-2.359375zm-328 299.3125h224v16h-224zm224-16h-224v-16h224zm-144-96h-112v-80h112zm144-80h-32v-32h32zm0-68.246094v20.246094h-32v-31.96875l33.929688.015625c-1.167969 3.738281-1.929688 7.632813-1.929688 11.707031zm-48 20.246094h-48v-32l48 .023438zm-48 16h48v32h-48zm0 48h48v32h-48zm0 48h48v32h-48zm0 48h48v32h-48zm64 32v-32h61.214844l2.875 32zm59.785156-48h-59.785156v-32h56c.3125 0 .601562-.078125.902344-.089844zm-59.785156-48v-32h32v24c0 2.816406.574219 5.488281 1.472656 8zm43.414062-143.945312-123.414062-.054688v240h-16v-256h184v1.0625l-21.65625 3.097656c-9.023438 1.289063-16.929688 5.6875-22.929688 11.894532zm49.761719.433593 15.511719 15.511719-9.558594 9.550781-9.226562-24.597656zm66.824219-104.488281v8h-22.558594l5.160156-30.960938c10.015626 2.890626 17.398438 12.03125 17.398438 22.960938zm-46.558594-24h13.109375l-5.335937 32h-2.445313zm-33.441406 24c0-10.929688 7.382812-20.070312 17.398438-22.960938l5.160156 30.960938h-22.558594zm0 32v-8h80v8c0 22.054688-17.945312 40-40 40s-40-17.945312-40-40zm-240-64c0-4.414062 3.59375-8 8-8h160c4.40625 0 8 3.585938 8 8v104h-128v48h-48zm-112 168h160v16h-160zm16 32h144v16h-128v112h128v48h-89.886719l-54.113281 27.054688zm48 196.945312v38.109376l-38.113281-19.054688zm256 43.054688v-48h17.519531l4.304688 48zm24.152344-150.367188c.566406-.519531 1.09375-1.066406 1.609375-1.632812h38.238281v168h-24.695312zm80.542968 166.367188h-24.695312v-168h7.785156c7.75 0 15.03125-3.800781 19.488282-10.152344l2.992187-4.28125 7.109375 7.113282c.816406.816406 1.738281 1.488281 2.640625 2.167968l.015625 4.417969zm36.679688-199.3125c1.664062 1.671875 2.625 3.984375 2.625 6.34375 0 4.945312-4.023438 8.96875-8.96875 8.96875-2.398438 0-4.648438-.929688-6.34375-2.625l-9.113281-9.109375 10.449219-14.929687zm2.625-66.777344c0 4.945313-1.503906 9.707032-4.335938 13.769532l-45.503906 65c-1.464844 2.082031-3.839844 3.320312-6.375 3.320312-4.289062 0-7.785156-3.496094-7.785156-7.785156v-2.957032c0-1.671874.550781-3.328124 1.550781-4.671874l43.242188-57.648438c2.070312-2.753906 3.207031-6.167969 3.207031-9.601562v-13.335938h-16v13.335938l-6.679688 8.902343c-4.542968-3.972656-10.25-6.238281-16.351562-6.238281-13.769531 0-24.96875 11.199219-24.96875 24.96875 0 6.574219 2.664062 13.007812 7.3125 17.65625l3.839844 3.832031-6.398438 8.527344c-3.066406 4.105469-4.753906 9.175781-4.753906 14.273437v2.957032c0 2.738281.558594 5.328125 1.414062 7.785156h-33.414062v-96h-16v96c0 4.414062-3.59375 8-8 8s-8-3.585938-8-8v-108.246094c0-11.867187 8.855469-22.082031 20.609375-23.753906l5.070313-.726562 19.191406 51.167968 27.128906-27.128906 27.128906 27.128906 19.191406-51.167968 5.078126.726562c11.746093 1.671875 20.601562 11.878906 20.601562 23.753906zm-61.375 33.402344c-1.664062-1.671875-2.625-3.984375-2.625-6.34375 0-4.945312 4.023438-8.96875 8.96875-8.96875 2.398438 0 4.648438.929688 6.335938 2.625l.414062.414062-10.871094 14.496094zm0 0"/><path d="m288 48h-144v64h144zm-64 16h16v32h-16zm-16 32h-16v-32h16zm-48-32h16v32h-16zm112 32h-16v-32h16zm0 0"/></svg>