<svg height="434pt" viewBox="-9 0 434 434.59873" width="434pt" xmlns="http://www.w3.org/2000/svg"><path d="m229.046875 314.046875c-23.398437 0-45.992187-7.113281-65.332031-20.558594-3.097656-2.15625-3.863282-6.410156-1.707032-9.507812 2.148438-3.085938 6.410157-3.855469 9.5-1.707031 17.042969 11.851562 36.9375 18.121093 57.539063 18.121093 56.464844 0 102.398437-46.546875 102.398437-103.769531 0-60.398438-68.097656-181.804688-102.625-182.957031-6.566406-.066407-15.101562 4.632812-24.808593 14.027343-36.875 35.664063-77.363281 124.078126-77.363281 168.929688 0 17.65625 4.546874 35.148438 13.160156 50.589844 1.835937 3.292968.652344 7.453125-2.640625 9.285156-3.296875 1.832031-7.449219.660156-9.289063-2.632812-9.738281-17.472657-14.886718-37.269532-14.886718-57.242188 0-48.542969 41.910156-140.425781 81.527343-178.746094 12.613281-12.191406 24.351563-18.339844 34.753907-17.8515622 30.445312 1.0117182 63.082031 53.6796872 75.699218 76.2734372 24.378906 43.652344 40.128906 90.878907 40.128906 120.324219 0 64.746094-52.0625 117.421875-116.054687 117.421875zm0 0"/><path d="m185.085938 132.726562c-4-4-10.484376-4-14.480469 0-4 4-4 10.480469 0 14.480469 3.996093 4 10.480469 4 14.480469 0s4-10.480469 0-14.480469zm0 0"/><path d="m273.832031 132.726562c-4-4-10.484375-4-14.480469 0-4 4-4 10.484376 0 14.480469 3.996094 4 10.480469 4 14.480469 0 4-3.996093 4-10.480469 0-14.480469zm0 0"/><path d="m270.007812 185.546875c-.109374-10.714844-95.464843-10.714844-95.574218 0v.226563c0 18.058593 21.394531 32.699218 47.785156 32.699218 26.394531 0 47.789062-14.640625 47.789062-32.699218 0-.078126 0-.152344 0-.226563zm-48.9375 19.273437c-11.3125 0-20.480468-3.058593-20.480468-6.828124 0-3.769532 9.167968-6.824219 20.480468-6.824219 11.308594 0 20.480469 3.054687 20.480469 6.824219 0 3.769531-9.171875 6.828124-20.480469 6.828124zm0 0"/><path d="m276.847656 272.785156c-2.25 0-4.453125-1.113281-5.757812-3.144531-2.03125-3.175781-1.105469-7.394531 2.070312-9.425781 15.96875-10.226563 27.976563-25.75 33.8125-43.707032 1.171875-3.582031 5.015625-5.535156 8.605469-4.378906 3.585937 1.167969 5.542969 5.019532 4.382813 8.605469-6.8125 20.945313-20.816407 39.054687-39.441407 50.972656-1.140625.734375-2.414062 1.078125-3.671875 1.078125zm0 0"/><path d="m318.222656 356.214844c-3.121094 0-5.941406-2.164063-6.65625-5.335938-.820312-3.679687 1.496094-7.332031 5.175782-8.152344l74.617187-16.707031c3.007813-.53125 5.359375-2.027343 6.929687-4.265625 1.574219-2.238281 2.175782-4.953125 1.707032-7.644531-.632813-3.609375-3.058594-6.535156-6.488282-7.828125-3.527343-1.332031-5.304687-5.265625-3.976562-8.792969 1.328125-3.539062 5.277344-5.320312 8.796875-3.980469 7.871094 2.96875 13.664063 9.960938 15.113281 18.242188 1.101563 6.285156-.3125 12.625-3.976562 17.847656-3.667969 5.222656-9.152344 8.707032-15.4375 9.8125l-74.308594 16.640625c-.5.109375-1.003906.164063-1.496094.164063zm0 0"/><path d="m219.46875 395.964844h-51.863281c-.496094 0-.992188-.050782-1.480469-.160156l-61.4375-13.652344c-3.679688-.820313-6.003906-4.464844-5.183594-8.144532.816406-3.679687 4.472656-5.996093 8.140625-5.1875l60.710938 13.492188h51.109375c26.640625 0 52.773437-9.164062 73.582031-25.8125.183594-.148438.375-.28125.570313-.40625l101.042968-64.972656c.328125-.214844.671875-.394532 1.027344-.546875 2.519531-1.066407 4.472656-3.050781 5.496094-5.585938 1.027344-2.539062 1.003906-5.324219-.0625-7.839843-2.207032-5.199219-8.234375-7.632813-13.429688-5.425782l-101.429687 41.8125c-.824219.339844-1.710938.511719-2.601563.511719h-129.707031c-2.460937 0-4.730469-1.316406-5.9375-3.457031-1.214844-2.148438-1.179687-4.773438.085937-6.878906l20.480469-34.136719c1.234375-2.050781 3.457031-3.3125 5.851563-3.3125h27.308594c12.699218 0 23.402343-8.710938 26.441406-20.476563h-71.996094l-93.289062 68.410156c-3.046876 2.234376-7.3125 1.566407-9.542969-1.464843-2.230469-3.046875-1.570313-7.3125 1.46875-9.546875l95.09375-69.734375c1.167969-.859375 2.582031-1.316407 4.035156-1.316407h81.921875c3.769531 0 6.824219 3.050782 6.824219 6.824219 0 22.585938-18.375 40.960938-40.960938 40.960938h-23.4375l-12.289062 20.480469h116.296875l100.117187-41.273438c12.070313-5.113281 26.121094.566406 31.261719 12.695312 2.492188 5.871094 2.550781 12.363282.15625 18.285157-2.3125 5.726562-6.648438 10.246093-12.242188 12.792969l-100.304687 64.492187c-23.171875 18.429687-52.222656 28.574219-81.828125 28.574219zm0 0"/><path d="m74.160156 434.597656c-.363281 0-.730468-.027344-1.09375-.085937-1.789062-.292969-3.386718-1.28125-4.445312-2.746094l-67.03125-92.984375c-1.058594-1.46875-1.4921878-3.300781-1.203125-5.085938.289062-1.785156 1.28125-3.386718 2.746093-4.449218l44.300782-31.929688c3.0625-2.195312 7.328125-1.503906 9.53125 1.542969l67.03125 92.980469c2.207031 3.058594 1.515625 7.328125-1.542969 9.535156l-44.300781 31.9375c-1.167969.839844-2.570313 1.285156-3.992188 1.285156zm-57.503906-98.265625 59.050781 81.90625 33.222657-23.953125-59.050782-81.90625zm0 0"/><path d="m92.511719 389.140625c0 7.539063-6.109375 13.652344-13.652344 13.652344-7.539063 0-13.652344-6.113281-13.652344-13.652344 0-7.542969 6.113281-13.652344 13.652344-13.652344 7.542969 0 13.652344 6.109375 13.652344 13.652344zm0 0"/></svg>